<?xml version="1.0" ?><!-- Uploaded to: SVG Repo, www.svgrepo.com, Generator: SVG Repo Mixer Tools -->
<svg fill="#000000" width="800px" height="800px" viewBox="0 0 64 64" data-name="Layer 1" id="Layer_1" xmlns="http://www.w3.org/2000/svg"><path d="M20,31a1,1,0,0,0,0,2A1,1,0,0,0,20,31Z"/><path d="M24,33a1,1,0,0,0,0-2A1,1,0,0,0,24,33Z"/><path d="M28,31a1,1,0,0,0,0,2A1,1,0,0,0,28,31Z"/><path d="M11,56.941v1.0736A2.9887,2.9887,0,0,0,13.9858,61H34.0142A2.9887,2.9887,0,0,0,37,58.0146V56.941A9.01,9.01,0,0,0,45,48V36a.9876.9876,0,0,0-.8622-.9722,5.9792,5.9792,0,0,0-3.3111-8.7319c1.1226-4.0594-3.0541-8.2477-7.1226-7.12-1.0777-4.0452-6.73-5.5769-9.6978-2.5889-2.9438-2.9828-8.64-1.4663-9.71,2.5869C10.2345,18.05,6.053,22.2225,7.1772,26.2949a5.979,5.979,0,0,0-3.3139,8.7327A.9877.9877,0,0,0,3,36V48A9.01,9.01,0,0,0,11,56.941Zm24,1.0736A.9871.9871,0,0,1,34.0142,59H13.9858A.9871.9871,0,0,1,13,58.0146V57H35ZM6.0972,37H43v2H5V37Zm-.9566-6.0518a3.8593,3.8593,0,0,1,3.44-2.9,1.0059,1.0059,0,0,0,.7675-.51,1.0314,1.0314,0,0,0,.0362-.9326,3.9265,3.9265,0,0,1,5.29-5.19,1.0068,1.0068,0,0,0,1.3726-.8349,3.9245,3.9245,0,0,1,7.0957-1.9678.999.999,0,0,0,.8213.4824.9516.9516,0,0,0,.8549-.4238,3.9222,3.9222,0,0,1,7.1339,1.91,1.0245,1.0245,0,0,0,1.4418.8038,3.9265,3.9265,0,0,1,5.1939,5.2823,1.007,1.007,0,0,0,.8311,1.3808A3.9218,3.9218,0,0,1,41.57,35H6.4326A3.8574,3.8574,0,0,1,5.1406,30.9482ZM5,41H43v7a7.0081,7.0081,0,0,1-7,7H12a7.0081,7.0081,0,0,1-7-7Z"/><path d="M39.0029,32.0244A1,1,0,0,0,40.0137,33c1.911-.2494.738-3.0312-.7813-2.9618A1.0016,1.0016,0,0,0,39.0029,32.0244Z"/><path d="M34.9272,25.0781a1.0017,1.0017,0,0,0,1.8707.6914,1.9327,1.9327,0,0,0-1.7339-2.7618c-.7715-.0461-1.8238.6471-1.3891,1.5461A.9993.9993,0,0,0,34.9272,25.0781Z"/><path d="M27.99,21.0762a1.0013,1.0013,0,0,0,1.9712-.3116,1.93,1.93,0,0,0-3.43-1.0439A1.0014,1.0014,0,0,0,27.99,21.0762Z"/><path d="M18.9438,21.8389a1.01,1.01,0,0,0,1.065-.7686,1.0017,1.0017,0,0,0,1.4326-1.3858A1.8048,1.8048,0,0,0,20.0063,19a1.9118,1.9118,0,0,0-1.9677,1.7646A.9885.9885,0,0,0,18.9438,21.8389Z"/><path d="M12.0874,26.3438a1.02,1.02,0,0,0,.9775-1.2754,1.0014,1.0014,0,0,0,1.1939-.54c.4136-.8679-.5278-1.5711-1.3233-1.52a1.93,1.93,0,0,0-1.7285,2.7743A.9594.9594,0,0,0,12.0874,26.3438Z"/><path d="M7.9951,32.9717a1.0318,1.0318,0,0,0,1.0161-.9483,1.001,1.001,0,0,0-.2451-1.9843C7.2572,29.9706,6.0668,32.7464,7.9951,32.9717Z"/><path d="M52,61a1,1,0,0,0,1-1V6a3,3,0,0,0-6,0V60a1,1,0,0,0,1,1Zm-3-2V41h2V59ZM50,5a1.0009,1.0009,0,0,1,1,1V39H49V6A1.0009,1.0009,0,0,1,50,5Z"/><path d="M58,3a3.0033,3.0033,0,0,0-3,3V60a1,1,0,0,0,1,1h4a1,1,0,0,0,1-1V6A3.0033,3.0033,0,0,0,58,3Zm0,2a1.0009,1.0009,0,0,1,1,1V39H57V6A1.0009,1.0009,0,0,1,58,5ZM57,59V41h2V59Z"/></svg>